<?xml version="1.0" encoding="UTF-8" ?>
<!DOCTYPE svg PUBLIC "-//W3C//DTD SVG 1.1//EN" "http://www.w3.org/Graphics/SVG/1.1/DTD/svg11.dtd">
<svg width="20pt" height="20pt" viewBox="0 0 500 500" version="1.1" xmlns="http://www.w3.org/2000/svg">
<g id="#ffffffff">
<path fill="#ffffff" opacity="1.00" d=" M 328.55 51.35 C 338.07 47.46 350.11 45.57 358.78 52.36 C 360.69 54.76 363.21 56.65 364.68 59.40 C 368.57 65.16 368.90 72.35 369.11 79.07 C 369.20 91.82 367.22 104.47 364.91 116.97 C 356.58 159.91 342.12 201.38 325.79 241.86 C 309.95 279.96 292.79 317.73 270.63 352.63 C 260.74 368.11 249.69 382.82 237.90 396.90 C 223.98 412.84 208.23 427.98 188.72 436.79 C 181.06 440.50 172.57 442.76 164.01 442.39 C 161.25 442.29 158.43 441.64 155.71 442.41 L 154.92 442.58 C 154.46 442.33 153.54 441.84 153.08 441.60 C 146.45 438.78 139.50 436.55 133.46 432.54 C 120.55 425.00 111.14 412.17 106.91 397.92 C 100.79 376.92 101.30 354.57 104.69 333.14 C 108.37 308.30 115.66 284.13 124.77 260.79 C 133.58 238.67 143.76 217.08 155.53 196.38 C 168.81 172.35 185.08 149.86 204.80 130.69 C 216.15 118.86 229.02 108.47 243.18 100.17 C 256.62 92.58 271.21 86.05 286.80 84.93 C 298.77 71.65 311.80 58.40 328.55 51.35 M 330.83 87.79 C 315.08 98.51 303.23 113.75 291.48 128.50 C 276.82 147.28 264.36 167.62 252.13 188.03 C 242.27 204.60 232.29 221.11 223.26 238.15 C 222.86 240.28 221.49 242.03 220.87 244.08 C 220.14 246.23 219.46 248.86 217.16 249.84 C 215.50 247.21 215.79 243.93 215.07 241.01 C 215.24 233.20 216.84 225.52 218.50 217.92 L 218.91 217.75 C 221.34 204.08 226.24 190.94 230.14 177.63 L 230.55 177.87 C 231.44 171.52 235.49 165.35 234.20 158.89 C 231.95 158.80 230.56 160.73 229.17 162.17 C 225.69 166.23 223.24 171.01 220.50 175.57 C 198.06 213.51 179.02 253.59 165.40 295.55 C 158.72 317.22 154.13 339.54 151.90 362.10 C 150.76 373.48 149.62 384.95 150.46 396.39 C 151.06 401.08 152.23 406.00 155.18 409.80 C 156.71 411.83 159.27 410.93 161.13 409.94 C 163.30 409.00 165.30 407.71 167.23 406.35 C 181.05 395.86 191.53 381.74 201.79 367.93 C 219.90 343.11 235.36 316.53 251.18 290.24 C 258.19 277.82 265.22 265.42 272.22 253.00 C 278.88 240.36 285.51 227.71 292.16 215.07 C 304.51 189.61 317.26 164.31 327.88 138.07 C 333.06 125.50 337.91 112.75 341.29 99.57 C 341.54 98.02 341.94 96.50 342.09 94.94 C 343.48 91.41 343.34 86.70 341.86 83.18 C 337.89 83.46 334.30 85.94 330.83 87.79 Z" />
</g>
<g id="#000000ff">
<path fill="#000000" opacity="1.00" d=" M 227.64 3.85 C 286.06 -1.51 346.45 14.47 393.92 49.13 C 424.00 70.53 449.01 98.91 466.77 131.26 C 483.66 162.18 494.02 196.72 496.54 231.89 C 498.83 265.03 494.75 298.66 483.87 330.08 C 466.02 382.23 430.27 428.07 383.80 457.76 C 356.39 475.33 325.64 487.92 293.47 493.32 C 255.93 500.10 216.84 497.86 180.20 487.27 C 145.10 476.74 112.28 458.48 85.00 434.00 C 58.14 409.92 36.63 379.90 22.55 346.69 C 5.16 306.46 -0.71 261.48 4.87 218.06 C 13.02 154.10 47.41 93.88 98.65 54.69 C 135.46 25.61 181.00 8.07 227.64 3.85 M 328.55 51.35 C 311.80 58.40 298.77 71.65 286.80 84.93 C 271.21 86.05 256.62 92.58 243.18 100.17 C 229.02 108.47 216.15 118.86 204.80 130.69 C 185.08 149.86 168.81 172.35 155.53 196.38 C 143.76 217.08 133.58 238.67 124.77 260.79 C 115.66 284.13 108.37 308.30 104.69 333.14 C 101.30 354.57 100.79 376.92 106.91 397.92 C 111.14 412.17 120.55 425.00 133.46 432.54 C 139.50 436.55 146.45 438.78 153.08 441.60 C 153.54 441.84 154.46 442.33 154.92 442.58 L 155.71 442.41 C 157.78 443.83 160.39 444.63 162.66 445.27 C 168.13 448.63 174.73 448.92 180.94 449.63 C 193.85 450.21 206.00 444.43 216.79 437.89 C 232.14 428.29 245.00 415.26 256.69 401.55 C 263.80 392.36 271.39 383.52 277.77 373.79 C 285.08 363.83 291.27 353.14 297.72 342.62 C 315.28 311.72 329.96 279.28 343.44 246.42 C 356.83 212.85 368.97 178.68 377.33 143.48 C 381.41 125.57 385.24 107.43 385.70 89.00 C 385.75 80.79 385.33 71.86 380.16 65.05 C 377.12 61.10 373.27 56.35 367.87 56.23 C 364.99 54.79 362.14 52.49 358.78 52.36 C 350.11 45.57 338.07 47.46 328.55 51.35 Z" />
<path fill="#000000" opacity="1.00" d=" M 315.05 127.00 C 323.09 117.26 331.00 107.03 341.29 99.57 C 337.91 112.75 333.06 125.50 327.88 138.07 C 317.26 164.31 304.51 189.61 292.16 215.07 C 285.51 227.71 278.88 240.36 272.22 253.00 C 265.22 265.42 258.19 277.82 251.18 290.24 C 235.36 316.53 219.90 343.11 201.79 367.93 C 191.53 381.74 181.05 395.86 167.23 406.35 C 166.05 393.60 167.17 380.79 168.58 368.11 C 170.75 346.48 175.22 325.12 181.48 304.31 C 190.86 274.90 203.08 246.45 216.97 218.91 C 217.35 218.66 218.12 218.17 218.50 217.92 C 216.84 225.52 215.24 233.20 215.07 241.01 C 215.79 243.93 215.50 247.21 217.16 249.84 C 219.46 248.86 220.14 246.23 220.87 244.08 C 221.49 242.03 222.86 240.28 223.26 238.15 C 224.38 241.25 222.71 244.81 224.17 247.95 C 224.54 249.48 223.91 253.73 226.62 252.65 C 228.82 249.68 229.55 245.82 231.17 242.50 C 232.30 245.19 231.28 248.20 232.04 250.99 C 232.62 252.84 232.02 255.66 234.06 256.69 C 236.87 255.47 236.91 251.74 238.27 249.32 C 245.02 235.39 252.95 222.07 260.61 208.63 C 277.23 180.46 294.12 152.25 315.05 127.00 Z" />
</g>
<g id="#a5a5a5ff">
<path fill="#a5a5a5" opacity="1.00" d=" M 358.78 52.36 C 362.14 52.49 364.99 54.79 367.87 56.23 C 371.63 60.96 375.62 65.96 376.47 72.14 C 378.73 86.73 376.44 101.54 374.06 115.96 C 365.99 159.70 351.50 201.94 335.09 243.17 C 322.15 274.70 308.02 305.78 291.49 335.60 C 280.50 354.47 268.70 372.95 254.87 389.89 C 240.96 407.79 225.03 424.75 205.33 436.31 C 194.65 442.49 182.35 446.99 169.83 445.71 C 167.44 445.59 165.06 444.98 162.66 445.27 C 160.39 444.63 157.78 443.83 155.71 442.41 C 158.43 441.64 161.25 442.29 164.01 442.39 C 172.57 442.76 181.06 440.50 188.72 436.79 C 208.23 427.98 223.98 412.84 237.90 396.90 C 249.69 382.82 260.74 368.11 270.63 352.63 C 292.79 317.73 309.95 279.96 325.79 241.86 C 342.12 201.38 356.58 159.91 364.91 116.97 C 367.22 104.47 369.20 91.82 369.11 79.07 C 368.90 72.35 368.57 65.16 364.68 59.40 C 363.21 56.65 360.69 54.76 358.78 52.36 Z" />
<path fill="#a5a5a5" opacity="1.00" d=" M 330.83 87.79 C 334.30 85.94 337.89 83.46 341.86 83.18 C 343.34 86.70 343.48 91.41 342.09 94.94 C 342.14 93.16 342.63 91.38 342.34 89.60 C 328.34 97.25 317.97 109.89 307.97 122.02 C 290.16 143.42 275.07 166.90 260.87 190.80 C 250.42 207.71 241.05 225.28 231.17 242.50 C 229.55 245.82 228.82 249.68 226.62 252.65 C 223.91 253.73 224.54 249.48 224.17 247.95 C 222.71 244.81 224.38 241.25 223.26 238.15 C 232.29 221.11 242.27 204.60 252.13 188.03 C 264.36 167.62 276.82 147.28 291.48 128.50 C 303.23 113.75 315.08 98.51 330.83 87.79 Z" />
<path fill="#a5a5a5" opacity="1.00" d=" M 229.17 162.17 C 230.56 160.73 231.95 158.80 234.20 158.89 C 235.49 165.35 231.44 171.52 230.55 177.87 L 230.14 177.63 L 229.67 177.32 C 218.90 195.97 208.46 214.85 199.43 234.42 C 185.13 265.76 172.00 297.98 165.34 331.91 C 162.94 343.15 161.31 354.53 160.16 365.96 C 159.02 377.22 157.90 388.57 158.77 399.89 C 158.88 403.38 160.22 406.62 161.13 409.94 C 159.27 410.93 156.71 411.83 155.18 409.80 C 152.23 406.00 151.06 401.08 150.46 396.39 C 149.62 384.95 150.76 373.48 151.90 362.10 C 154.13 339.54 158.72 317.22 165.40 295.55 C 179.02 253.59 198.06 213.51 220.50 175.57 C 223.24 171.01 225.69 166.23 229.17 162.17 Z" />
</g>
<g id="#4d4d4dff">
<path fill="#4d4d4d" opacity="1.00" d=" M 367.87 56.23 C 373.27 56.35 377.12 61.10 380.16 65.05 C 385.33 71.86 385.75 80.79 385.70 89.00 C 385.24 107.43 381.41 125.57 377.33 143.48 C 368.97 178.68 356.83 212.85 343.44 246.42 C 329.96 279.28 315.28 311.72 297.72 342.62 C 291.27 353.14 285.08 363.83 277.77 373.79 C 271.39 383.52 263.80 392.36 256.69 401.55 C 245.00 415.26 232.14 428.29 216.79 437.89 C 206.00 444.43 193.85 450.21 180.94 449.63 C 174.73 448.92 168.13 448.63 162.66 445.27 C 165.06 444.98 167.44 445.59 169.83 445.71 C 182.35 446.99 194.65 442.49 205.33 436.31 C 225.03 424.75 240.96 407.79 254.87 389.89 C 268.70 372.95 280.50 354.47 291.49 335.60 C 308.02 305.78 322.15 274.70 335.09 243.17 C 351.50 201.94 365.99 159.70 374.06 115.96 C 376.44 101.54 378.73 86.73 376.47 72.14 C 375.62 65.96 371.63 60.96 367.87 56.23 Z" />
<path fill="#4d4d4d" opacity="1.00" d=" M 307.97 122.02 C 317.97 109.89 328.34 97.25 342.34 89.60 C 342.63 91.38 342.14 93.16 342.09 94.94 C 341.94 96.50 341.54 98.02 341.29 99.57 C 331.00 107.03 323.09 117.26 315.05 127.00 C 294.12 152.25 277.23 180.46 260.61 208.63 C 252.95 222.07 245.02 235.39 238.27 249.32 C 236.91 251.74 236.87 255.47 234.06 256.69 C 232.02 255.66 232.62 252.84 232.04 250.99 C 231.28 248.20 232.30 245.19 231.17 242.50 C 241.05 225.28 250.42 207.71 260.87 190.80 C 275.07 166.90 290.16 143.42 307.97 122.02 Z" />
<path fill="#4d4d4d" opacity="1.00" d=" M 199.43 234.42 C 208.46 214.85 218.90 195.97 229.67 177.32 L 230.14 177.63 C 226.24 190.94 221.34 204.08 218.91 217.75 L 218.50 217.92 C 218.12 218.17 217.35 218.66 216.97 218.91 C 203.08 246.45 190.86 274.90 181.48 304.31 C 175.22 325.12 170.75 346.48 168.58 368.11 C 167.17 380.79 166.05 393.60 167.23 406.35 C 165.30 407.71 163.30 409.00 161.13 409.94 C 160.22 406.62 158.88 403.38 158.77 399.89 C 157.90 388.57 159.02 377.22 160.16 365.96 C 161.31 354.53 162.94 343.15 165.34 331.91 C 172.00 297.98 185.13 265.76 199.43 234.42 Z" />
</g>
</svg>
