<svg viewBox="0 0 54 33" fill="none" xmlns="http://www.w3.org/2000/svg">
<path d="M8.59285 32.6026C8.09881 32.6026 7.59683 32.4802 7.13914 32.2297C5.68429 31.4285 5.15164 29.5959 5.95572 28.1441L20.6121 1.5538C21.1414 0.590467 22.159 0 23.2515 0C23.2606 0 23.2606 0 23.2606 0C24.3509 0 25.3673 0.590467 25.8977 1.5538L40.5825 28.1395C41.3832 29.5959 40.8528 31.4251 39.3991 32.2297C37.934 33.0253 36.0987 32.504 35.2958 31.0477L23.2595 9.24347L11.2413 31.042C10.6814 32.0427 9.65474 32.6026 8.59285 32.6026Z" fill="#21052D"/>
<path d="M53.4665 8.36503L53.7708 7.59288C54.0244 6.95174 53.6158 6.24092 52.9282 6.12663L52.0997 5.99004C51.3444 5.8646 50.5695 5.98446 49.8903 6.32733L45.4152 8.59918C40.2158 11.239 35.4589 14.6593 31.3135 18.7375C30.9951 19.0525 31.2994 19.5821 31.7334 19.4706C37.3978 18.0462 42.8057 15.7604 47.7655 12.6997L52.0349 10.0654C52.683 9.66402 53.1846 9.06749 53.4608 8.36224L53.4665 8.36503Z" fill="#56CCF2"/>
<path d="M47.3202 8.76922L34.1739 4.64087C33.1847 4.33145 32.4295 5.53009 33.1481 6.26879L39.7086 13.0397L47.3202 8.76922Z" fill="#56CCF2"/>
<path d="M48.5968 10.9965L45.4349 24.2791C45.1982 25.2771 43.7694 25.3022 43.4961 24.3154L40.9852 15.2698L48.5968 10.9993V10.9965Z" fill="#56CCF2"/>
<path d="M34.5318 16.8838L29.7467 15.3813C29.386 15.267 29.1126 15.7046 29.3747 15.975L31.7616 18.4392L34.5318 16.8838Z" fill="#56CCF2"/>
<path d="M34.9967 17.6921L33.8441 22.5257C33.7567 22.8881 33.2382 22.8993 33.1368 22.5397L32.2237 19.2476L34.9939 17.6921H34.9967Z" fill="#56CCF2"/>
<path d="M30.9972 19.5909C30.9972 19.5909 10.9745 30.1715 5.75861 27.6431C0.542727 25.112 10.4588 19.8217 10.4588 19.8217C10.4588 19.8217 -4.54143 25.8833 1.38635 31.3121C8.06806 37.4334 31 19.5909 31 19.5909H30.9972Z" fill="#56CCF2"/>
</svg>
