<svg viewBox="0 0 23 15" fill="none" xmlns="http://www.w3.org/2000/svg">
<path d="M0.900879 3.91497C2.21004 4.30567 3.52034 4.6918 4.82647 5.09242C5.02569 5.15346 5.0883 5.10386 5.1494 4.91691C6.1899 1.73827 9.12394 -0.26941 12.4215 0.0293384C15.0349 0.266277 16.9558 1.6116 18.1723 3.96C18.2645 4.1378 18.2349 4.21105 18.0467 4.25951C17.7507 4.33543 17.454 4.41365 17.1679 4.51896C16.9789 4.5884 16.9061 4.52468 16.8176 4.36405C15.1461 1.32277 11.3032 0.451707 8.49971 2.48495C7.52676 3.19042 6.85814 4.13055 6.47639 5.27899C6.40391 5.49761 6.4449 5.58041 6.66309 5.64489C8.32971 6.13785 9.99368 6.6411 11.658 7.14321C11.8034 7.18709 11.9384 7.1642 12.0789 7.12184C15.3901 6.12525 18.7017 5.13019 22.0137 4.13589C22.2873 4.05386 22.5635 3.97984 22.8515 3.92566C22.5324 4.08896 22.2152 4.25493 21.8942 4.4148C20.9352 4.89134 19.9778 5.37094 19.0132 5.83604C18.8292 5.92456 18.803 6.02949 18.8227 6.21644C19.1821 9.62591 17.3341 12.6046 14.1447 13.7615C13.7679 13.8981 13.3781 13.9946 12.9733 14.0541C12.9679 13.9232 13.0734 13.8748 13.141 13.8069C14.0509 12.8877 14.97 11.9774 15.8743 11.0525C17.0051 9.89643 17.5299 8.49845 17.4904 6.87918C17.4851 6.65522 17.429 6.6205 17.2309 6.72046C16.4116 7.13405 15.5874 7.53773 14.764 7.94254C14.6463 8.00016 14.5814 8.08562 14.5253 8.20772C14.0039 9.34204 13.122 9.96854 11.8736 9.98189C10.6103 9.99525 9.71591 9.37257 9.1763 8.23481C9.10497 8.08486 9.01579 7.98718 8.87235 7.9166C6.54887 6.77197 4.22388 5.63001 1.90647 4.47279C1.56609 4.303 1.19573 4.17824 0.906952 3.91192L0.901639 3.91459L0.900879 3.91497Z" fill="#FA1E32"/>
<path d="M10.7253 14.0507C7.42205 13.5268 4.91339 10.6774 4.80334 7.36183C4.79461 7.10428 4.8595 7.05011 5.0739 7.19089C5.08187 7.19624 5.09098 7.19967 5.09933 7.20387C5.43326 7.36908 5.79755 7.4927 6.09277 7.71056C6.41646 7.9494 6.30376 8.39352 6.42101 8.73729C6.71358 9.59614 7.13517 10.3695 7.77343 11.0155C8.67505 11.9285 9.58273 12.8354 10.4859 13.747C10.5712 13.8332 10.6817 13.9015 10.7253 14.051V14.0507Z" fill="#FA1E32"/>
<path d="M11.8747 2.14806C11.9631 2.70244 12.0644 3.25491 12.1335 3.81158C12.1654 4.06836 12.2621 4.18054 12.5236 4.23395C13.1626 4.36444 13.6783 4.71775 14.101 5.21566C14.221 5.35683 14.1963 5.4133 14.0278 5.4629C13.3584 5.65902 12.6909 5.86009 12.0242 6.06421C11.8997 6.10237 11.7852 6.10199 11.6611 6.06383C10.9943 5.85894 10.3276 5.65482 9.65786 5.45985C9.47382 5.40643 9.47799 5.33699 9.58955 5.20918C10.0316 4.7044 10.5625 4.34574 11.2262 4.21716C11.4201 4.17977 11.5123 4.10118 11.54 3.89323C11.6178 3.30985 11.7206 2.72953 11.814 2.14806H11.8747Z" fill="#FA1E32"/>
<path d="M0.906206 3.91193C0.887991 3.91193 0.869777 3.91193 0.851562 3.91231C0.859152 3.91231 0.86636 3.91116 0.87395 3.91193C0.882678 3.91269 0.891405 3.9146 0.900133 3.91536C0.900513 3.91498 0.905826 3.91193 0.905826 3.91193H0.906206Z" fill="#FA1E32"/>
</svg>

