<svg viewBox="0 0 22 21" fill="none" xmlns="http://www.w3.org/2000/svg">
<path d="M14.7017 9.59379C14.2808 9.40641 13.8587 9.22069 13.4389 9.03056C13.2859 8.96112 13.184 9.0471 13.0612 9.11874C12.2687 9.58056 11.4668 10.0264 10.677 10.4921C10.4303 10.6376 10.2522 10.6238 10.0472 10.4133C9.19543 9.54033 8.33162 8.67841 7.47 7.81483C7.26556 7.61037 7.04412 7.423 6.84516 7.21358C6.58426 6.93913 6.63853 6.71538 7.00137 6.6013C7.44424 6.46187 7.89368 6.34394 8.34203 6.22214C8.58265 6.15656 8.80737 6.20561 9.03484 6.31032C10.358 6.91819 11.6882 7.51172 13.0097 8.12345C13.2377 8.22926 13.4104 8.18352 13.6071 8.06723C14.5164 7.53101 15.4274 6.99754 16.3438 6.47455C16.5938 6.33181 16.8563 6.19183 17.1309 6.11909C17.4044 6.04689 17.4099 5.93061 17.3025 5.72339C16.7253 4.61017 15.9821 3.63416 14.9346 2.9304C12.2588 1.13271 9.45852 0.97454 6.70156 2.61132C4.18466 4.10536 3.01775 6.4536 3.09667 9.40421C3.12079 10.297 3.3192 11.1529 3.65629 11.9779C3.70452 12.0963 3.81962 12.2418 3.5801 12.2942C3.39539 12.3344 3.18218 12.4854 3.07365 12.1884C2.92676 11.7866 2.74972 11.3937 2.68121 10.966C2.65326 10.7908 2.60448 10.6613 2.39674 10.8002C1.72203 11.2493 1.08732 11.7403 0.709129 12.4865C0.475088 12.9489 0.612662 13.1699 1.12076 13.2057C1.79383 13.2531 2.40113 12.9787 3.03254 12.8277C3.67931 12.6734 4.3184 12.4843 4.96133 12.3135C5.10712 12.2749 5.26388 12.2303 5.39323 12.341C5.48202 12.4165 5.5182 12.5295 5.48038 12.6519C5.43434 12.8012 5.32581 12.8585 5.17837 12.8971C4.25537 13.1385 3.33455 13.3892 2.41373 13.6383C2.28438 13.6731 2.10625 13.6725 2.10186 13.8522C2.09693 14.0676 2.28712 14.0996 2.44772 14.1266C2.97445 14.2153 3.46829 14.0417 3.96377 13.91C5.28635 13.5595 6.60619 13.1975 7.92712 12.8403C8.13924 12.783 8.3508 12.783 8.41219 13.0382C8.47522 13.3005 8.27297 13.3821 8.06415 13.4377C7.24034 13.6587 6.41819 13.8847 5.59384 14.1029C5.14165 14.2225 5.12795 14.2385 5.44695 14.5609C7.08633 16.2158 8.73174 17.8653 10.3711 19.5197C10.495 19.6448 10.586 19.7104 10.7383 19.5539C12.5898 17.6493 14.5252 15.8273 16.3252 13.8715C16.9555 13.1864 17.3611 12.3581 17.6746 11.4841C17.708 11.3909 17.7059 11.2697 17.8067 11.2212C17.9744 11.1407 18.1761 10.9974 18.3318 11.1016C18.4743 11.1964 18.3471 11.4031 18.2989 11.5513C17.8626 12.8977 17.1117 14.0423 16.112 15.0354C14.324 16.8105 12.5444 18.5933 10.7696 20.3811C10.6002 20.5519 10.5114 20.5415 10.3503 20.3783C8.49222 18.4991 6.62427 16.6286 4.7673 14.7483C4.55573 14.5339 4.37759 14.4132 4.05038 14.5256C3.53954 14.7009 3.00514 14.805 2.45649 14.7499C1.98183 14.7025 1.60802 14.5113 1.48525 14.0059C1.42934 13.7772 1.26271 13.8533 1.12459 13.8461C0.190622 13.7993 -0.19908 13.2129 0.102925 12.3339C0.265164 11.861 0.592931 11.5149 0.926178 11.1738C1.29725 10.7941 1.72367 10.4761 2.1775 10.2061C2.40825 10.0683 2.47841 9.92004 2.46416 9.65882C2.34687 7.46212 2.94923 5.49083 4.34964 3.78792C6.40832 1.28536 10.0077 0.233306 13.0535 1.27158C15.2854 2.03266 16.9467 3.46938 17.9344 5.64624C18.0259 5.84794 18.146 5.91463 18.3669 5.90912C19.7042 5.87605 20.8054 6.39739 21.6999 7.38332C22.0781 7.79995 22.1022 7.95095 21.7695 8.399C20.9556 9.49624 19.8824 10.2496 18.5784 10.6172C16.0314 11.3353 13.4728 12.0098 10.9192 12.7042C10.6918 12.7659 10.4818 12.7681 10.2692 12.6364C9.93812 12.4314 9.58842 12.2573 9.25901 12.0506C9.04964 11.9189 8.85232 11.8957 8.61718 11.9679C8.1491 12.1118 7.67444 12.2319 7.20307 12.3647C6.99589 12.4232 6.79693 12.4413 6.67032 12.2242C6.18469 11.3937 5.70346 10.5599 5.22167 9.72716C5.13453 9.5767 5.0852 9.42515 5.22277 9.2747C5.38227 9.1 5.55383 9.19038 5.70346 9.27525C6.7191 9.85226 7.73254 10.4337 8.74215 11.0217C8.95043 11.1429 9.13624 11.1688 9.3796 11.1016C11.145 10.6144 12.9165 10.1482 14.6863 9.67535C14.6918 9.6478 14.6968 9.62024 14.7022 9.59269L14.7017 9.59379ZM14.0061 8.56929C14.637 8.85752 15.1714 9.10331 15.7069 9.34634C15.8812 9.4257 16.0659 9.49514 16.0506 9.73818C16.0352 9.98342 15.8335 10.033 15.6554 10.0815C14.6255 10.3626 13.594 10.6359 12.5624 10.9104C11.7732 11.1203 10.9834 11.3259 10.1957 11.5414C10.1064 11.5656 9.85316 11.6114 10.0269 11.7332C10.2801 11.9106 10.5262 12.1476 10.9384 12.033C13.2618 11.386 15.5913 10.7616 17.9256 10.157C19.155 9.83848 20.1855 9.21684 21.0553 8.29704C21.2811 8.05842 21.308 7.88206 21.057 7.63627C20.4699 7.06092 19.7821 6.70601 18.9742 6.58367C18.0369 6.44203 17.1912 6.68176 16.391 7.1772C15.6357 7.64509 14.8568 8.0744 14.0061 8.56874V8.56929ZM8.55689 6.8245C8.30312 6.89835 8.06141 6.96448 7.82298 7.03943C7.66458 7.08903 7.71281 7.16508 7.80106 7.25326C8.61006 8.06172 9.41906 8.87074 10.2226 9.68472C10.3804 9.84454 10.5197 9.86438 10.7164 9.74314C11.2284 9.4257 11.7534 9.12976 12.2698 8.82004C12.3481 8.7732 12.4906 8.76328 12.4671 8.63101C12.4506 8.53898 12.3361 8.52796 12.2577 8.49214C11.2777 8.04299 10.2982 7.59108 9.31711 7.14414C9.06718 7.03006 8.81066 6.93086 8.55689 6.8245ZM8.11293 11.3849C7.53029 11.0537 7.00411 10.7544 6.47793 10.4552C6.61002 10.836 6.78761 11.1507 6.9652 11.4653C6.98383 11.4979 7.0074 11.5282 7.02384 11.5618C7.07591 11.6681 7.16361 11.7177 7.26939 11.6703C7.51988 11.5579 7.81147 11.575 8.11347 11.3843L8.11293 11.3849Z" fill="#FC6CFF"/>
</svg>
