<svg viewBox="0 0 23 20" fill="none" xmlns="http://www.w3.org/2000/svg">
<path d="M11.9178 0.00248671C12.4676 0.00248671 13.0173 0.00355687 13.567 0.00248671C14.443 0.000346392 15.1023 0.389885 15.5355 1.14328C17.8973 5.24841 20.2527 9.35729 22.6086 13.4662C23.0231 14.1896 23.0295 14.9339 22.6256 15.6541C22.061 16.6617 21.4724 17.6559 20.8779 18.6463C20.4671 19.3301 19.8424 19.6854 19.0505 19.6983C18.0489 19.7148 17.0463 19.7154 16.0448 19.6972C15.2641 19.6827 14.642 19.3365 14.236 18.6591C13.8618 18.0352 13.476 17.4167 13.1642 16.7569C13.0375 16.4883 12.9832 16.2015 12.9838 15.9019C12.9864 14.859 12.9854 13.8156 12.9838 12.7727C12.9838 12.6004 12.9721 12.4303 13.161 12.335C13.3478 12.2414 13.4781 12.3446 13.616 12.4506C15.0369 13.5427 16.4599 14.6326 17.8818 15.7231C18.1942 15.9623 18.3017 15.9404 18.5008 15.5963C18.6386 15.3582 18.7791 15.1212 18.918 14.8836C19.1064 14.5604 19.0962 14.4555 18.8302 14.1805C18.3416 13.6759 17.8489 13.1756 17.3593 12.6721C16.0703 11.3478 14.7846 10.0203 13.4925 8.69968C13.1439 8.34332 12.9694 7.93505 12.9795 7.42993C12.9955 6.6637 12.9907 5.8964 12.9816 5.12963C12.9742 4.50893 12.7842 3.93586 12.4516 3.41737C12.1328 2.92028 11.7294 2.91921 11.4053 3.41416C11.0674 3.92998 10.8806 4.50412 10.8727 5.12427C10.8625 5.9178 10.8668 6.71132 10.8716 7.50485C10.8742 7.97893 10.7018 8.36954 10.3612 8.69326C8.45553 10.504 6.55091 12.3163 4.64574 14.1281C4.31473 14.4432 4.30088 14.5337 4.52972 14.9312C4.65371 15.1469 4.77931 15.362 4.90437 15.5771C5.1183 15.9457 5.19972 15.9677 5.54244 15.7285C7.01814 14.6969 8.49279 13.6631 9.96743 12.6304C10.0983 12.5389 10.225 12.441 10.3612 12.3586C10.6055 12.2109 10.8652 12.3441 10.8668 12.6325C10.8737 13.7738 10.8769 14.9152 10.8631 16.056C10.8593 16.3775 10.7561 16.6879 10.5943 16.9709C10.2819 17.5189 9.97327 18.0695 9.65131 18.6115C9.22611 19.3274 8.58644 19.6913 7.76105 19.7004C6.76802 19.7116 5.77446 19.717 4.78197 19.6983C3.97999 19.6827 3.3515 19.32 2.9412 18.6206C2.35688 17.6243 1.77574 16.6258 1.21537 15.6161C0.829012 14.92 0.823694 14.1917 1.2191 13.4988C2.80922 10.7127 4.41371 7.93452 6.01235 5.15317C6.76962 3.83527 7.53115 2.52004 8.28151 1.19839C8.73545 0.398981 9.40439 -0.00714473 10.3234 0.00248671C10.8556 0.00783751 11.3878 0.00355685 11.9194 0.00355685L11.9178 0.00248671Z" fill="#8EF27E"/>
</svg>

