<?xml version="1.0" encoding="UTF-8" ?>
<!DOCTYPE svg PUBLIC "-//W3C//DTD SVG 1.1//EN" "http://www.w3.org/Graphics/SVG/1.1/DTD/svg11.dtd">
<svg width="996pt" height="847pt" viewBox="0 0 996 847" version="1.1" xmlns="http://www.w3.org/2000/svg">
<g id="#ab08f9ff">
<path fill="#ab08f9" opacity="1.00" d=" M 0.00 0.00 L 0.04 0.00 C 0.03 0.01 0.01 0.03 0.00 0.04 L 0.00 0.00 Z" />
<path fill="#ab08f9" opacity="1.00" d=" M 757.53 41.58 C 766.95 40.68 777.86 40.97 785.24 47.75 C 792.08 54.21 794.70 63.58 797.89 72.13 C 809.34 104.23 821.39 136.10 833.39 168.00 C 846.85 167.41 860.31 166.62 873.74 165.58 C 890.35 164.45 907.55 166.13 922.76 173.32 C 929.44 176.95 936.46 180.72 940.84 187.18 C 945.41 192.82 945.51 200.65 944.35 207.47 C 942.30 217.87 933.31 225.19 924.06 229.29 C 914.30 234.75 903.26 237.94 892.07 238.39 C 881.80 239.13 871.52 238.22 861.30 237.30 C 851.60 236.44 841.90 235.61 832.20 234.73 C 827.09 251.33 821.77 267.90 814.91 283.86 C 813.09 288.04 812.21 292.54 810.93 296.89 C 806.34 312.43 800.69 327.65 794.71 342.70 C 791.80 350.41 784.43 355.62 776.67 357.68 C 770.99 359.10 764.76 360.07 759.15 357.89 C 757.59 357.29 756.59 355.76 756.75 354.09 C 757.14 327.73 757.10 301.35 756.11 275.00 C 756.35 260.89 756.22 246.76 755.57 232.66 C 739.56 237.00 723.49 241.22 707.92 246.97 C 679.68 257.78 652.61 271.64 627.33 288.23 C 596.56 308.80 567.60 332.23 541.96 358.95 C 521.84 380.42 502.92 403.08 486.66 427.64 C 478.50 439.67 470.71 451.96 463.62 464.65 C 454.74 483.29 445.48 501.78 438.10 521.08 C 429.30 543.18 422.85 566.22 418.76 589.65 C 415.36 611.98 413.52 634.94 417.62 657.31 C 420.62 674.91 427.15 692.03 437.15 706.85 C 446.60 720.13 457.99 732.36 471.90 741.03 C 489.64 752.65 510.07 759.60 530.83 763.39 C 540.76 764.93 550.64 766.71 560.57 768.26 C 536.48 788.89 508.86 807.09 477.27 813.27 C 471.12 814.21 465.00 815.34 458.99 816.98 C 437.43 821.64 414.72 820.01 393.79 813.24 C 367.50 805.49 344.12 789.47 325.78 769.28 C 316.56 758.23 308.48 746.07 303.41 732.53 C 294.77 712.52 290.97 690.67 290.53 668.95 C 290.32 642.28 295.52 615.85 303.41 590.46 C 306.34 578.98 310.93 568.05 314.98 556.95 C 326.01 530.14 339.40 504.31 354.91 479.83 C 366.86 461.41 379.39 443.34 393.05 426.14 C 399.24 417.74 406.47 410.18 413.19 402.22 C 415.94 397.40 420.73 394.42 424.28 390.28 C 432.31 381.98 439.79 373.13 448.50 365.51 C 476.90 338.44 508.09 314.36 541.08 293.14 C 555.47 284.29 570.18 275.97 585.14 268.13 C 602.64 258.67 620.97 250.90 639.34 243.32 C 663.42 233.07 688.53 225.45 713.77 218.68 C 716.71 218.08 715.78 212.95 712.90 213.04 C 709.68 213.34 706.55 214.23 703.34 214.61 C 682.63 217.21 662.35 222.42 642.36 228.32 C 632.11 231.71 621.91 235.24 611.68 238.69 C 579.87 250.50 548.64 263.82 517.75 277.84 C 515.53 278.78 513.21 279.41 510.87 279.96 C 528.20 272.18 544.97 263.22 562.14 255.11 C 580.00 246.49 598.38 238.96 616.99 232.12 C 643.52 221.80 670.88 213.86 698.28 206.26 C 703.02 204.88 707.95 204.23 712.55 202.38 C 713.04 200.49 712.44 197.74 710.03 197.94 C 698.28 199.81 686.55 201.82 674.81 203.75 C 642.91 210.36 611.42 218.85 580.23 228.25 C 537.32 240.53 495.83 257.39 455.74 276.91 C 412.21 297.18 370.63 321.60 331.70 349.71 C 323.56 355.04 316.64 361.93 309.16 368.11 C 295.02 380.24 280.58 392.10 267.80 405.70 C 243.72 430.02 223.15 457.79 206.82 487.86 C 201.94 496.06 198.60 505.05 194.66 513.71 C 191.15 523.29 187.07 532.70 184.76 542.67 C 178.08 565.84 175.03 589.94 174.64 614.02 C 174.47 646.11 180.30 678.40 193.00 707.94 C 199.43 723.68 208.16 738.34 217.39 752.58 C 219.58 755.58 219.97 759.48 222.22 762.44 C 224.35 766.82 228.34 770.13 228.97 775.23 C 222.62 768.49 214.85 763.24 208.56 756.44 C 202.73 750.28 196.58 744.41 191.34 737.72 C 184.25 729.95 178.61 721.04 172.72 712.36 C 168.40 704.59 163.57 697.07 160.11 688.86 C 142.88 652.24 135.94 611.30 137.18 570.99 C 138.80 529.69 151.72 489.17 172.69 453.67 C 179.42 441.45 187.73 430.20 195.91 418.92 C 204.16 407.95 213.42 397.78 222.42 387.44 C 225.49 385.56 228.10 383.01 229.63 379.71 C 232.28 378.38 234.29 376.27 235.83 373.77 C 240.38 370.79 244.07 366.77 248.05 363.10 C 263.20 348.36 280.02 335.49 297.14 323.16 C 319.21 307.04 342.84 293.22 366.53 279.64 C 393.61 264.39 421.10 249.73 449.78 237.69 C 470.92 228.64 492.51 220.69 514.28 213.29 C 580.79 191.78 650.24 179.81 720.00 176.03 C 731.53 175.03 743.21 175.70 754.65 173.84 C 754.66 161.59 754.81 149.35 754.92 137.10 C 754.39 107.39 753.83 77.67 753.23 47.96 C 752.84 45.10 754.32 41.80 757.53 41.58 Z" />
</g>
<g id="#ffffffff">
</g>
<g id="#fd9535ff">
<path fill="#fd9535" opacity="1.00" d=" M 486.18 191.31 C 522.69 182.02 559.75 174.87 596.98 169.15 C 600.00 168.58 602.74 170.14 605.30 171.50 C 564.08 180.52 523.37 191.81 483.36 205.21 C 467.51 210.01 452.39 216.94 436.49 221.49 C 423.40 226.75 410.84 233.20 398.03 239.09 C 383.97 245.96 369.55 252.14 355.93 259.89 C 303.75 287.50 254.90 322.29 214.65 365.68 C 203.82 376.63 194.26 388.73 184.86 400.91 C 155.30 440.08 133.13 485.35 123.44 533.61 C 120.80 544.93 119.59 556.51 117.90 567.99 C 117.37 565.99 116.89 563.97 116.61 561.93 C 113.29 533.34 118.02 504.47 125.88 477.00 C 138.08 432.78 161.56 392.47 189.50 356.41 C 197.26 346.58 204.84 336.59 213.18 327.24 C 217.92 322.59 223.56 318.95 227.97 313.92 C 241.92 298.90 258.94 287.27 275.87 275.90 C 303.11 259.24 331.45 244.33 360.86 231.89 C 401.40 214.86 443.57 202.03 486.18 191.31 Z" />
<path fill="#fd9535" opacity="1.00" d=" M 570.55 366.51 C 572.80 364.36 575.03 362.19 577.39 360.16 C 575.67 364.33 573.20 368.11 570.97 372.01 C 563.72 384.43 556.47 396.85 549.24 409.28 C 540.91 427.15 533.55 445.47 527.39 464.21 C 522.99 477.74 517.67 491.08 515.48 505.21 C 513.19 519.70 511.86 534.33 510.57 548.95 C 508.19 572.71 508.39 597.25 515.61 620.22 C 521.25 639.10 530.80 657.19 545.20 670.85 C 556.53 682.19 570.58 690.59 585.50 696.32 C 594.48 699.34 603.50 702.57 612.96 703.70 C 615.09 704.09 617.81 703.94 619.15 706.02 C 619.26 707.44 619.27 709.11 618.03 710.10 C 608.53 719.23 597.90 727.48 585.60 732.48 C 552.27 747.33 510.49 743.29 481.91 720.09 C 467.68 708.80 458.19 692.49 452.75 675.34 C 445.99 654.35 443.22 632.09 444.71 610.09 C 445.19 602.70 445.96 595.34 446.23 587.94 C 449.86 548.67 463.82 511.03 482.67 476.61 C 500.79 443.75 522.95 413.00 549.10 386.05 C 555.74 378.99 563.61 373.26 570.55 366.51 Z" />
</g>
</svg>
