<svg viewBox="0 0 23 16" fill="none" xmlns="http://www.w3.org/2000/svg">
<path d="M14.7031 8.23978C13.8214 8.70828 12.9432 9.18336 12.0568 9.64307C11.4943 9.93462 10.9209 10.2046 10.3519 10.483C9.44626 10.926 8.5231 11.3296 7.5851 11.6988C7.35496 11.7893 7.14361 11.899 7.00605 12.1423C6.9436 12.2529 6.77199 12.4624 6.58771 12.2016C6.51434 12.0979 6.39469 12.1427 6.29818 12.1761C5.89687 12.3157 5.48551 12.3324 5.06891 12.2837C4.89555 12.2635 4.74183 12.3184 4.58549 12.3798C3.80557 12.6863 3.02434 12.9897 2.21865 13.2365C2.93919 12.8782 3.66321 12.5269 4.37807 12.1572C4.56715 12.0593 4.78987 12.0114 4.9331 11.8292C5.06629 11.6593 5.10515 11.5368 4.82174 11.5083C4.48069 11.474 4.14095 11.4275 3.80077 11.3836C3.73265 11.3748 3.63832 11.3919 3.61736 11.3028C3.5964 11.2141 3.68854 11.1851 3.74357 11.143C4.10209 10.8681 4.52392 10.9164 4.93484 10.9142C4.97546 10.9142 5.01694 10.9383 5.05668 10.9353C5.15275 10.9282 5.28638 10.9919 5.32742 10.8576C5.36018 10.7504 5.23791 10.7083 5.17197 10.6486C5.13354 10.6139 5.07458 10.5994 5.04402 10.5607C4.62698 10.0378 4.1558 10.0712 3.59116 10.3329C2.86626 10.6687 2.10599 10.9282 1.36013 11.2194C1.26755 11.2554 1.17716 11.3177 1.03087 11.2536C1.38109 11.0117 1.75184 10.8615 2.10599 10.6837C2.6453 10.4128 3.18897 10.1498 3.73527 9.89334C3.93745 9.7985 4.00077 9.7063 3.78854 9.55657C3.57456 9.40597 3.65011 9.33308 3.84356 9.22375C4.37632 8.92211 4.8938 8.84571 5.47328 9.1232C5.95975 9.35591 6.49294 9.48764 6.98683 9.70717C7.33924 9.86392 7.62134 9.80289 7.91742 9.59477C8.65018 9.0793 9.39167 8.57699 10.1262 8.06371C10.4009 7.87184 10.7074 7.74363 11.0188 7.60532C10.9463 7.46262 10.8157 7.48238 10.7144 7.46394C9.34276 7.21586 7.96938 6.97481 6.59731 6.72805C6.4353 6.69907 6.29251 6.71927 6.14971 6.80445C5.23747 7.3489 4.3296 7.90082 3.40688 8.42727C2.50556 8.94143 1.65183 9.53857 0.7099 9.98687C1.00597 9.66151 1.38895 9.44856 1.74398 9.20312C3.0929 8.26876 4.48986 7.39808 5.78551 6.39523C6.34578 5.96142 6.89339 5.88766 7.52964 5.85385C9.48294 5.75023 11.4397 5.73486 13.3913 5.5926C13.8581 5.55879 14.2476 5.38931 14.6293 5.1364C15.8529 4.32499 17.0442 3.4622 18.3429 2.76934C19.1534 2.33685 19.9791 1.99086 20.9316 2.14234C21.1901 2.18362 21.4468 2.0879 21.7041 2.05145C21.9543 2.01589 22.1984 2.01852 22.3438 2.25782C22.4875 2.49492 22.387 2.72587 22.2495 2.93268C21.8674 3.50611 21.3451 3.93992 20.8141 4.36143C19.9473 5.04946 19.0293 5.66592 18.0822 6.23233C17.4944 6.58403 17.0429 7.04901 16.638 7.59039C15.9385 8.5265 15.2075 9.43846 14.5 10.3689C14.3254 10.5989 14.0721 10.656 13.8336 10.7465C12.7018 11.1763 11.5677 11.6005 10.4319 12.0198C10.2188 12.0984 9.99386 12.1445 9.68687 12.2301C11.1454 11.5386 12.5236 10.8826 13.904 10.2323C14.1275 10.1269 14.2096 9.93418 14.2716 9.71859C14.4105 9.23868 14.5188 8.74736 14.769 8.30696C14.8048 8.27886 14.8717 8.25164 14.8219 8.19895C14.7808 8.15548 14.7363 8.20554 14.7022 8.23934L14.7031 8.23978Z" fill="#FC7803"/>
<path d="M13.9615 9.13681C13.9157 9.52627 13.834 9.81167 13.4371 9.99081C12.082 10.6024 10.7462 11.2575 9.40515 11.9012C9.28375 11.9596 9.06628 11.9759 9.09292 12.148C9.12655 12.3684 9.2034 12.6046 9.36672 12.7671C9.46235 12.8624 9.60384 12.7508 9.71651 12.7096C11.0934 12.2086 12.4528 11.6483 13.8528 11.2251C14.4227 11.0529 14.7594 10.7241 15.0843 10.3034C15.7725 9.41167 16.4642 8.5221 17.1437 7.62376C17.4245 7.25274 17.7428 6.93704 18.1437 6.69555C18.6516 6.38907 19.1437 6.05713 19.6402 5.73178C19.9328 5.54034 19.952 5.54298 20.0284 5.88502C20.4782 7.89423 20.2463 9.80903 19.2446 11.6185C17.0629 15.5578 11.9178 16.7693 8.16234 14.231C7.65797 13.8902 7.2191 13.4793 6.79377 13.0481C6.63176 12.8834 6.58459 12.7759 6.86626 12.7017C7.09159 12.6424 7.28373 12.5129 7.40818 12.3052C7.4929 12.1647 7.6453 12.1379 7.77587 12.0852C9.81171 11.2611 11.775 10.2828 13.7131 9.25185C13.7847 9.21365 13.8607 9.18335 13.962 9.13725L13.9615 9.13681Z" fill="#01A2C9"/>
<path d="M4.86365 6.54759C5.02435 5.478 5.3558 4.55814 5.88812 3.72521C7.47984 1.23521 9.75934 -0.0446932 12.7048 -0.0064936C14.7192 0.0194119 16.4625 0.793941 17.9232 2.19986C18.0747 2.34563 18.0961 2.41325 17.89 2.52829C16.6354 3.22993 15.4721 4.07515 14.2725 4.86417C14.0537 5.00819 13.8323 5.11883 13.559 5.14606C11.9113 5.30808 10.255 5.28217 8.60474 5.38228C7.90954 5.42443 7.21346 5.45297 6.51825 5.48985C6.24445 5.50434 6.01606 5.62728 5.83615 5.8275C5.57981 6.11246 5.23658 6.26746 4.86452 6.54715L4.86365 6.54759Z" fill="#01A2C9"/>
<path d="M9.79689 7.7805C9.03137 8.30783 8.30429 8.80706 7.57939 9.30892C7.45668 9.39366 7.34271 9.40157 7.20209 9.34493C6.4523 9.04372 5.70993 8.72012 4.92521 8.51595C4.82739 8.49048 4.78591 8.44394 4.78591 8.34427C4.78591 8.23319 4.7466 8.12342 4.88241 8.04526C5.36801 7.76513 5.84836 7.47578 6.32959 7.18775C6.41606 7.13594 6.50383 7.13462 6.59903 7.15218C7.61957 7.34011 8.64054 7.52583 9.66151 7.71376C9.68946 7.71903 9.71435 7.73923 9.79732 7.7805H9.79689Z" fill="#01A2C9"/>
<path d="M0.422563 10.1445C0.471472 10.112 0.52082 10.0791 0.598987 10.0268C0.553571 10.1406 0.486321 10.141 0.418198 10.1397L0.422563 10.1445Z" fill="#FC7803"/>
<path d="M0.418184 10.1397C0.416874 10.148 0.415128 10.1559 0.413818 10.1643C0.416875 10.1577 0.41993 10.1515 0.42255 10.1449L0.418184 10.1401V10.1397Z" fill="#FC7803"/>
<path d="M14.7031 8.23979C14.7372 8.20554 14.7821 8.15593 14.8228 8.1994C14.8721 8.25209 14.8057 8.27931 14.7699 8.30741C14.7477 8.28502 14.7254 8.26262 14.7031 8.24023V8.23979Z" fill="#F1F1F1"/>
</svg>


