<svg viewBox="0 0 18 23" fill="none" xmlns="http://www.w3.org/2000/svg">
<path d="M3.59977 15.8703C2.79241 15.9625 1.959 16.0582 1.12503 16.1527C0.974995 16.1697 0.824955 16.1891 0.674353 16.1919C0.369186 16.1976 0.144982 16.04 0.0442033 15.7621C-0.055443 15.4866 0.0119359 15.2202 0.261052 15.0272C0.552064 14.8018 0.856661 14.5946 1.15617 14.3794C2.42892 13.4646 3.70168 12.5492 4.975 11.6344C5.3985 11.3304 5.59609 11.3287 6.02072 11.6321C7.90437 12.9761 9.7869 14.3213 11.6694 15.6671C12.0686 15.9523 12.1354 16.1498 12.0006 16.6149C11.469 18.4531 10.9374 20.2913 10.4046 22.1289C10.2936 22.512 10.0592 22.7032 9.72405 22.6902C9.38888 22.6771 9.17826 22.4778 9.08711 22.0793C8.89121 21.2203 8.69928 20.3601 8.50338 19.5011C8.36807 18.9091 7.91569 18.7417 7.42482 19.0952C6.33607 19.8785 5.24676 20.6601 4.15688 21.4412C3.83416 21.6723 3.58221 21.6922 3.32177 21.5135C3.05794 21.333 2.98038 21.0649 3.09191 20.6801C3.452 19.4334 3.81718 18.1878 4.17387 16.94C4.22539 16.7606 4.27634 16.5677 4.26389 16.3861C4.24124 16.0656 3.95815 15.8566 3.6009 15.8703H3.59977Z" fill="#2E3192"/>
<path d="M14.9719 9.02372C14.724 8.92125 14.4482 8.85863 14.2325 8.70891C13.1998 7.99391 12.1773 7.26354 11.1633 6.52235C10.3707 5.94284 10.3825 4.87887 11.1775 4.30619C12.7254 3.19042 14.2761 2.07921 15.828 0.967993C16.3274 0.610492 16.9286 0.599676 17.3867 0.930421C17.8855 1.29077 18.0768 1.82645 17.9019 2.43557C17.3708 4.28399 16.8358 6.13183 16.294 7.9774C16.1122 8.5962 15.6066 8.97021 14.9725 9.02372H14.9719Z" fill="#2E3192"/>
<path d="M10.7459 8.13911C12.1535 8.15505 13.2405 9.26 13.2264 10.6604C13.2122 12.0534 12.064 13.1749 10.6735 13.1532C9.33561 13.1327 8.23158 11.9868 8.24007 10.6291C8.24856 9.21389 9.34637 8.12317 10.7459 8.13911Z" fill="#2E3192"/>
</svg>
